<?xml version="1.0" encoding="iso-8859-1"?>
<!-- Generator: Adobe Illustrator 16.0.0, SVG Export Plug-In . SVG Version: 6.00 Build 0)  -->
<!DOCTYPE svg PUBLIC "-//W3C//DTD SVG 1.1//EN" "http://www.w3.org/Graphics/SVG/1.1/DTD/svg11.dtd">
<svg version="1.1" id="Capa_1" xmlns="http://www.w3.org/2000/svg" xmlns:xlink="http://www.w3.org/1999/xlink" x="0px" y="0px"
	 width="936.092px" height="936.092px" viewBox="0 0 936.092 936.092" style="enable-background:new 0 0 936.092 936.092;"
	 xml:space="preserve">
<g>
	<path d="M789.011,323.844c-20.624-20.379-53.866-20.18-74.244,0.445c-20.38,20.625-20.18,53.866,0.445,74.245l42.25,41.747H520.546
		V185.317l41.747,42.25c20.38,20.625,53.62,20.826,74.244,0.445c20.625-20.379,20.825-53.62,0.444-74.245L507.07,22.288
		c-20.378-20.625-53.62-20.825-74.244-0.445L299.555,153.524c-20.625,20.379-20.825,53.62-0.444,74.245
		c10.271,10.394,23.805,15.6,37.347,15.6c13.329,0,26.667-5.046,36.896-15.155l42.192-41.689v253.754H178.63l42.25-41.747
		c20.625-20.379,20.825-53.62,0.445-74.245c-20.376-20.624-53.618-20.825-74.244-0.445L15.601,453.756
		c-9.905,9.787-15.516,23.106-15.6,37.029c-0.083,13.925,5.367,27.311,15.154,37.216l131.683,133.271
		c10.271,10.396,23.804,15.601,37.347,15.601c13.329,0,26.667-5.047,36.897-15.155c20.625-20.379,20.825-53.62,0.445-74.245
		l-41.688-42.192h235.707v331.625c0,28.995,23.505,52.5,52.5,52.5s52.5-23.505,52.5-52.5V545.28h235.707l-41.688,42.192
		c-20.381,20.625-20.181,53.866,0.444,74.245c10.231,10.11,23.566,15.155,36.897,15.155c13.541,0,27.078-5.207,37.347-15.601
		l131.683-133.271c9.787-9.905,15.237-23.291,15.154-37.215c-0.084-13.924-5.694-27.244-15.6-37.03L789.011,323.844z"/>
</g>
<g>
</g>
<g>
</g>
<g>
</g>
<g>
</g>
<g>
</g>
<g>
</g>
<g>
</g>
<g>
</g>
<g>
</g>
<g>
</g>
<g>
</g>
<g>
</g>
<g>
</g>
<g>
</g>
<g>
</g>
</svg>
